<svg width="76" height="75" viewBox="0 0 76 75" fill="none" xmlns="http://www.w3.org/2000/svg">
<g id="Frame">
<rect x="1.815" y="1.46997" width="72.2" height="72.2" rx="15" fill="white"/>
<rect x="1.815" y="1.46997" width="72.2" height="72.2" rx="15" stroke="#8C8C8C" stroke-width="2"/>
<path id="Vector" d="M27.945 40.24L31.795 50.68L48.875 26.96L27.945 40.24Z" fill="#EC8B39"/>
<path id="Vector_2" d="M32.215 42.56L31.845 50.79L40.855 43.14L32.215 42.56Z" fill="#E35E00"/>
<path id="Vector_3" d="M53.045 22.95L19.385 35.74C18.435 36.1 18.455 37.46 19.425 37.78L28.105 40.71L47.875 27.95L32.215 42.56L44.405 51.81C45.675 52.77 47.515 52.13 47.895 50.58L54.485 24.22C54.695 23.38 53.865 22.64 53.045 22.95Z" fill="#FFA943"/>
</g>
</svg>
