<svg width="64" height="64" viewBox="0 0 64 64" fill="none" xmlns="http://www.w3.org/2000/svg">
<path d="M48.0391 16.945C49.6162 17.7544 51.0598 18.6222 52.3783 19.5401C52.7371 17.5541 51.7942 14.6669 51.2768 13.2734C51.1182 13.0564 50.968 12.8728 50.8512 12.7393C48.448 13.9827 48.0892 16.1022 48.0391 16.945Z" fill="#BA8484"/>
<path d="M11.9992 38.2485C11.5987 37.873 11.3484 37.3306 11.3484 36.7381C11.3484 35.5866 12.2829 34.652 13.4345 34.652C14.4358 34.652 15.2703 35.3613 15.4705 36.3042C15.8127 35.6867 15.8878 35.2361 15.8878 35.2361C15.6792 35.0776 15.4705 34.919 15.2619 34.7605C14.0103 33.7925 12.5917 32.6994 10.9729 32.2738C9.71283 31.9401 8.87003 32.0235 8.28592 32.2238C8.17744 32.5075 7.79359 33.6006 7.75187 34.7021C7.74353 35.0943 7.76856 35.4614 7.82697 35.8119C9.57932 38.0399 11.34 38.2568 11.9992 38.2485Z" fill="white"/>
<path d="M31.5921 35.8787C32.727 37.1387 34.254 37.9898 35.9312 38.2068C38.1342 38.4988 39.6946 37.6477 40.4707 37.0719C38.9102 36.9634 37.6752 35.67 37.6752 34.0762C37.6752 32.4157 39.0187 31.0722 40.6793 31.0722C41.8558 31.0722 42.8822 31.7565 43.3662 32.7411C43.4079 32.2822 43.4496 31.6897 43.483 30.922C43.5665 28.8109 42.3815 27.7094 41.6305 27.2254C39.8198 27.918 37.6836 29.2281 35.2637 31.5395C34.5544 32.2238 33.7116 32.8079 32.9022 33.4337C32.1762 33.9928 31.4836 34.4434 30.8244 34.7688C31.008 35.1694 31.2917 35.5365 31.5921 35.8787Z" fill="white"/>
<path d="M16.814 10.2026C15.1033 11.3291 11.4735 14.475 9.66272 21.6262C11.6654 19.4733 13.9935 17.8628 16.6137 16.8365C17.7402 16.3942 18.85 16.027 19.9432 15.7099C21.6788 14.0828 21.6955 12.5891 21.3701 11.5794C20.4689 10.9452 19.4008 10.4195 18.1658 10.2026C17.7152 10.1275 17.2646 10.1275 16.814 10.2026Z" fill="#FFA943"/>
<path d="M58.9454 39.3666C58.3613 45.4581 55.0902 49.7389 52.1863 52.3924C57.1513 48.8377 60.2471 43.2218 60.5058 37.2138C60.7311 32.0652 58.9871 27.5842 55.2905 23.8041C57.0512 26.4076 59.6797 31.6897 58.9454 39.3666Z" fill="#FFA943"/>
<path d="M52.3449 7.09845C51.6857 6.43923 51.0682 6.022 50.5842 5.75498C50.0919 5.48796 49.5328 5.37113 48.9737 5.41286C43.967 5.80505 37.8338 12.0384 35.5891 14.5084C36.6822 14.6502 37.5668 14.8338 38.3011 15.0424C39.7447 13.0731 46.6873 4.21125 52.3449 7.09845Z" fill="#FFDC9B"/>
<path d="M16.814 10.2026C16.0797 10.3195 15.3788 10.6366 14.7779 11.1289C12.5583 12.9563 7.76022 17.7377 6.8006 25.4647C7.30127 24.6219 7.84366 23.8209 8.42778 23.0699C8.81997 22.5609 9.22885 22.0852 9.65442 21.6263C11.4735 14.475 15.1034 11.3291 16.814 10.2026Z" fill="#FEDD9F"/>
<path d="M19.9432 15.71C21.4535 15.276 22.9305 14.9589 24.3407 14.7336C23.79 13.8992 22.7887 12.5975 21.3701 11.5878C21.6955 12.5975 21.6788 14.0828 19.9432 15.71Z" fill="#D8661A"/>
<path d="M55.8663 17.4707C55.7495 17.4457 55.6327 17.3873 55.5242 17.3122C55.1904 17.0869 54.9568 16.728 54.865 16.3275C54.3643 14.2247 52.6203 12.4473 51.7608 11.6713C52.6537 12.6142 55.0903 15.7267 54.5979 21.2591C55.0235 21.6179 55.424 21.9934 55.8162 22.3689C56.1917 20.9253 55.8663 17.4707 55.8663 17.4707Z" fill="#D8661A"/>
<path d="M52.3783 19.5401C52.6787 19.7487 52.9707 19.9657 53.2628 20.1826C53.3462 16.6779 52.1112 14.3999 51.2768 13.2734C51.7942 14.6669 52.7371 17.5625 52.3783 19.5401Z" fill="#F8B8BA"/>
<path d="M53.2962 45.5165C50.9097 48.5456 47.7221 50.8069 44.1089 52.4007C44.3091 53.8694 44.1756 55.6134 42.9573 57.0069C45.7945 56.0723 48.7067 54.7205 51.5939 52.8013C51.7942 52.6678 51.9944 52.5342 52.1864 52.3924C55.0903 49.7388 58.3613 45.4581 58.9454 39.3666C59.6797 31.6897 57.0512 26.4076 55.2905 23.7958C53.9387 22.4106 52.3199 21.1255 50.4507 19.9323C52.929 22.6943 62.1497 34.2681 53.2962 45.5165Z" fill="#D8661A"/>
<path d="M34.3458 47.2939C34.2373 47.7529 34.1121 48.1784 33.9786 48.5706C35.7644 47.8447 38.76 48.3453 38.76 48.3453C38.2594 48.0282 36.7323 47.1938 34.3458 47.2939Z" fill="#C2B7B8"/>
<path d="M8.79492 39.6921L8.80327 39.7004C8.80327 39.7004 8.80327 39.7004 8.79492 39.6921Z" fill="#C3874B"/>
<path d="M9.40406 38.407C9.93811 38.8075 10.5806 39.0829 11.2899 39.2164C13.3927 39.6253 16.088 39.3917 17.0309 36.0288C16.6471 35.7952 16.2716 35.5281 15.8877 35.2361C15.8877 35.2361 15.8126 35.695 15.4705 36.3042C15.5039 36.446 15.5122 36.5879 15.5122 36.7381C15.5122 37.8896 14.5777 38.8242 13.4261 38.8242C12.867 38.8242 12.3664 38.6073 11.9909 38.2485C11.3316 38.2568 9.57095 38.0398 7.8186 35.8119C8.01053 36.8966 8.53623 37.7645 9.40406 38.407Z" fill="#C2B6B7"/>
<path d="M13.4345 34.652C12.2829 34.652 11.3483 35.5866 11.3483 36.7381C11.3483 37.3306 11.5987 37.873 11.9992 38.2485C12.3747 38.6073 12.8754 38.8242 13.4345 38.8242C14.586 38.8242 15.5206 37.8896 15.5206 36.7381C15.5206 36.5879 15.5039 36.446 15.4789 36.3042C15.2702 35.3613 14.4358 34.652 13.4345 34.652Z" fill="#2D1106"/>
<path d="M28.246 35.4865C27.8538 35.4865 27.4699 35.4447 27.1195 35.3112C26.4352 35.0525 26.0347 34.6687 25.801 34.2515C26.0096 34.894 26.6438 35.862 28.5464 36.1373C28.6632 36.154 28.7717 36.2291 28.8301 36.3376C29.0971 36.8383 29.9649 38.3152 31.3668 39.1998C30.4656 38.2735 29.6228 37.0469 28.9052 35.428C28.6799 35.4698 28.4629 35.4865 28.246 35.4865Z" fill="#D8661A"/>
<path d="M47.3632 31.2057C47.2965 34.8105 45.8863 37.8146 43.2911 39.9007C41.8225 41.0773 40.0618 41.7699 38.2761 41.895C38.2761 41.895 45.5525 41.7198 47.6219 33.9344C47.6219 33.9344 48.8486 29.6703 47.7554 27.1002C47.4967 26.9834 47.1797 26.8666 46.8042 26.7748C47.0044 27.5008 47.3966 29.1697 47.3632 31.2057Z" fill="#D8661A"/>
<path d="M43.4831 30.9304C43.4497 31.6981 43.4163 32.2905 43.3662 32.7495C43.5665 33.15 43.675 33.6006 43.675 34.0762C43.675 35.7368 42.3315 37.0803 40.671 37.0803C40.6042 37.0803 40.5375 37.0803 40.4707 37.0719C39.6947 37.6477 38.1426 38.4988 35.9396 38.2068C34.2624 37.9898 32.727 37.1387 31.5921 35.8787C31.2917 35.5449 31.0164 35.1694 30.8161 34.7855C30.6325 34.8773 30.4406 34.9608 30.257 35.0442C31.6839 38.1817 33.7867 40.0008 36.5154 40.4348C38.5598 40.7602 40.7043 40.1677 42.4066 38.8076C44.693 36.9718 45.8863 34.4267 45.953 31.2224C45.9948 29.3616 45.4857 27.2588 45.2938 26.5662C44.2841 26.5328 43.0492 26.6914 41.6222 27.2337C42.3732 27.7177 43.5582 28.8192 43.4831 30.9304Z" fill="#C2B6B7"/>
<path d="M43.675 34.0762C43.675 33.6006 43.5665 33.15 43.3662 32.7495C42.8739 31.7565 41.8559 31.0806 40.6793 31.0806C39.0188 31.0806 37.6753 32.424 37.6753 34.0762C37.6753 35.6617 38.9103 36.9634 40.4707 37.0719C40.5375 37.0803 40.6042 37.0803 40.671 37.0803C42.3315 37.0803 43.675 35.7368 43.675 34.0762Z" fill="#2D1106"/>
<path d="M27.5784 33.9844C28.6549 34.3099 30.1903 33.7675 32.0344 32.3406C32.8355 31.7231 33.6198 31.0805 34.3709 30.4631C36.7073 28.5522 38.9103 26.7581 41.2217 25.8736C42.4233 25.4146 43.7084 25.2895 44.91 25.4897C44.91 25.4897 40.2704 23.9961 35.5808 28.0098C30.8912 32.0235 29.4893 33.2334 28.2043 33.1917C26.9192 33.15 26.0764 32.6076 25.6926 31.3559C25.6926 31.3559 25.5757 31.7648 25.6175 32.3155C25.776 32.5659 26.4853 33.6507 27.5784 33.9844Z" fill="#FEDD9F"/>
<path d="M44.0171 32.0986C44.0171 33.0165 43.2744 33.7508 42.3649 33.7508C41.4553 33.7508 40.7126 33.0082 40.7126 32.0986C40.7126 31.1807 41.4553 30.4464 42.3649 30.4464C43.2744 30.4464 44.0171 31.1807 44.0171 32.0986Z" fill="white"/>
<path d="M15.7876 35.7034C15.7876 36.1958 15.3871 36.5879 14.9031 36.5879C14.4107 36.5879 14.0186 36.1874 14.0186 35.7034C14.0186 35.2111 14.4191 34.8189 14.9031 34.8189C15.3871 34.8189 15.7876 35.2194 15.7876 35.7034Z" fill="white"/>
<path d="M20.035 38.9244C22.0126 37.9982 25.0834 37.606 29.3391 39.9091C29.3391 39.9091 37.3331 41.119 42.3732 48.1701C43.1993 49.33 43.7918 50.6484 44.0421 52.0503C44.0671 52.1672 44.0838 52.284 44.1005 52.4008C47.722 50.807 50.9013 48.5456 53.2878 45.5166C62.1413 34.2598 52.9207 22.686 50.4423 19.9323C49.3826 19.2564 48.2477 18.6139 47.0211 18.0047C46.8041 17.8963 46.6539 17.6793 46.6372 17.4373C46.6372 17.3956 46.5455 16.3275 47.0044 15.0424C47.43 13.8575 48.4146 12.2387 50.7177 11.254C50.9013 11.1789 51.1016 11.1789 51.2768 11.254C51.3352 11.2791 51.402 11.3208 51.452 11.3625C51.4771 11.3875 51.5939 11.4877 51.7608 11.6629C52.6203 12.4389 54.3643 14.2163 54.8649 16.3191C54.9567 16.7197 55.1904 17.0785 55.5242 17.3038C55.6326 17.3789 55.7495 17.4373 55.8663 17.4623C55.8663 17.4623 56.1917 20.917 55.8162 22.3689C55.933 22.4857 56.0499 22.5942 56.1667 22.711C56.7925 13.5488 54.406 9.15121 52.3365 7.09011C46.6873 4.20291 39.7447 13.0648 38.2927 15.0424C39.7948 15.468 40.6709 16.002 41.4219 16.5361C41.4219 16.5361 40.5791 16.3609 39.1439 16.1606C38.5514 16.0771 16.0463 13.1399 7.2011 30.7051C7.2011 30.7051 10.1717 28.8109 14.3941 32.0318C18.6164 35.2528 20.4271 35.0609 21.1782 33.2084C21.2115 33.0666 21.2199 32.9831 21.2199 32.9831C21.3534 33.1667 22.1211 34.5936 21.3701 35.7034C21.2199 36.2875 20.7359 37.3056 19.2005 37.5058C19.0169 37.5309 18.8584 37.6394 18.7749 37.7979C18.1658 38.9077 15.4705 42.9798 9.75452 40.2011C9.42074 40.0593 9.10365 39.8924 8.80325 39.6921C8.80325 39.6921 8.7949 39.6921 8.7949 39.6838C8.7198 39.6337 8.63636 39.5753 8.56126 39.5169C7.03421 38.382 6.27486 36.6797 6.34996 34.5936C6.375 33.9761 6.46679 33.417 6.56692 32.9664C6.36665 32.9581 6.16638 32.9831 5.97446 33.0248C5.65737 34.0512 4.69775 37.2972 4.43073 40.6017C4.62265 44.1981 5.64902 47.4191 7.44309 49.6555C7.94376 50.2896 8.60298 50.9405 9.38736 51.5997C9.07862 49.2132 9.27054 42.4375 20.035 38.9244ZM25.5924 32.2738C25.5924 32.2738 25.6007 32.2905 25.6258 32.3239C25.5757 31.7732 25.7009 31.3643 25.7009 31.3643C26.0764 32.6076 26.9192 33.1584 28.2126 33.2001C29.4976 33.2418 30.8995 32.0319 35.5891 28.0181C40.2787 24.0044 44.9183 25.4981 44.9183 25.4981C46.3619 25.7317 47.6887 26.441 48.6232 27.5926C48.5982 27.5675 48.3062 27.3422 47.7638 27.1086C48.8569 29.687 47.6219 33.9511 47.6219 33.9511C45.5608 41.7449 38.2761 41.9117 38.2761 41.9117C38.0674 41.9284 37.8505 41.9368 37.6419 41.9368C37.1913 41.9368 36.749 41.9034 36.3067 41.8283C34.8465 41.5947 33.0274 40.9188 31.3751 39.2165C29.9733 38.3236 29.1054 36.855 28.8384 36.346C28.78 36.2375 28.6799 36.1624 28.5547 36.1457C26.6522 35.8703 26.018 34.894 25.8094 34.2598C25.292 33.3503 25.6091 32.3239 25.5924 32.2738Z" fill="#FFA943"/>
<path d="M5.16507 33.3503C5.45713 32.9664 7.37637 29.8873 11.3317 30.922C13.2259 31.4143 14.7696 32.6076 16.1298 33.6507C17.3814 34.6186 18.4662 35.4531 19.3591 35.3696C19.7429 35.3363 20.0934 35.1276 20.302 34.9107C20.8778 34.3349 21.1031 33.5923 21.1865 33.2168C20.4355 35.0692 18.6331 35.2612 14.4024 32.0402C10.1718 28.8109 7.20113 30.7051 7.20113 30.7051C16.0463 13.1399 38.5514 16.0855 39.1439 16.1606C37.8171 15.977 35.9897 15.7684 33.8368 15.6599C29.8231 15.4513 23.6565 15.5848 17.1144 18.1466C11.4735 20.3579 7.16775 25.6399 5.29024 32.641C4.56427 35.3446 4.2889 38.0816 4.42241 40.6183C4.68943 37.3139 5.64071 34.0679 5.96614 33.0415C5.52389 33.15 5.16507 33.3503 5.16507 33.3503Z" fill="#FEDD9F"/>
<path d="M31.0831 49.1548C30.983 48.8293 30.6408 48.6374 30.3154 48.7375C30.1402 48.7876 29.9399 48.9044 29.7146 49.1131C30.04 49.4802 30.4823 49.9308 30.9412 50.2562C31.0831 49.9976 31.2083 49.6054 31.0831 49.1548Z" fill="white"/>
<path d="M44.1089 52.4008C44.0922 52.284 44.0755 52.1588 44.0505 52.0503C43.8001 50.6484 43.216 49.33 42.3816 48.1701C37.3415 41.119 29.3474 39.909 29.3474 39.909C29.9316 40.2261 30.2737 40.852 30.2236 41.5112C30.1068 43.2302 28.997 46.3927 22.6301 47.2856C22.6301 47.2856 18.1324 46.7349 17.3397 42.4207C17.1978 41.6447 17.4565 40.8436 18.0239 40.3012C18.4829 39.859 19.1505 39.3416 20.035 38.9327C9.27056 42.4374 9.07863 49.2132 9.38738 51.6164C9.45414 51.6748 9.52924 51.7332 9.60434 51.7916C18.4662 55.9973 33.2443 57.1822 44.1089 52.4008ZM19.284 51.8667C19.1254 51.8167 18.9585 51.7582 18.8 51.6998C17.3814 51.1241 16.9976 49.4969 16.9976 49.4969C17.081 49.6387 19.6177 52.5927 26.1932 48.9545C29.6645 47.0353 32.4516 46.084 34.7297 46.0339C36.5905 45.9922 38.251 47.0102 38.952 48.4789C38.9436 48.4705 38.8852 48.4204 38.7684 48.3537C38.7684 48.3537 35.7727 47.853 33.9786 48.579C33.4446 50.0977 32.7437 51.1241 32.4099 51.5496C32.1846 51.8417 31.8341 52.0086 31.4836 52.0086C31.3418 52.0086 31.1999 51.9836 31.0581 51.9251C30.3404 51.6414 29.6061 51.0072 29.0387 50.4231C28.2793 50.9488 24.4075 53.4188 19.284 51.8667Z" fill="white"/>
<path d="M44.1088 52.4008C33.2443 57.1822 18.4662 55.9889 9.60431 51.8C12.8837 54.4702 18.341 57.1405 25.1084 58.2586C29.8147 59.0347 36.1816 59.2349 42.9573 57.0153C44.1756 55.6134 44.3091 53.8694 44.1088 52.4008Z" fill="#C2B6B7"/>
<path d="M31.0831 49.1548C31.2166 49.6054 31.0831 49.9976 30.9496 50.2562C31.0998 50.3647 31.2584 50.4649 31.4169 50.54C31.7841 50.0393 32.4349 48.9879 32.8605 47.4692C31.8174 47.6694 30.6492 48.0449 29.3725 48.6875C29.4559 48.796 29.5811 48.9462 29.7313 49.113C29.9566 48.9044 30.1569 48.796 30.3321 48.7375C30.6409 48.6374 30.983 48.8293 31.0831 49.1548Z" fill="#C2B7B8"/>
<path d="M28.1291 49.3634C27.7202 49.6137 27.2947 49.8808 26.8691 50.1812C24.7329 51.6748 22.555 52.0754 20.7776 52.0754C20.2352 52.0754 19.7512 52.0086 19.2839 51.8668C24.4075 53.4105 28.2877 50.9489 29.047 50.4148C28.6131 49.9809 28.2877 49.572 28.1291 49.3634Z" fill="#C2B7B8"/>
<path d="M19.4759 36.7632C19.3924 36.7715 19.309 36.7715 19.2255 36.7715C18.9168 36.7715 18.6164 36.7215 18.316 36.6297C17.7235 38.5322 16.5887 39.8006 14.9365 40.3931C14.1855 40.6684 13.4178 40.7602 12.7085 40.7602C12.0743 40.7602 11.4985 40.6851 11.0229 40.5933C10.5723 40.5099 10.1551 40.3764 9.75452 40.2095C15.4705 42.9882 18.1658 38.9161 18.7749 37.8063C18.8667 37.6477 19.0169 37.5309 19.2005 37.5142C20.7442 37.3139 21.2199 36.3043 21.3701 35.7118C21.3534 35.7368 21.3284 35.7702 21.3117 35.7952C20.8861 36.3543 20.2519 36.6881 19.4759 36.7632Z" fill="#D8661A"/>
<path d="M22.0794 59.0763C21.9042 59.0346 21.7373 58.9929 21.5704 58.9512L22.0794 59.0763Z" fill="#D4854A"/>
<path d="M59.2959 26.7164C58.7618 25.8235 58.1527 24.964 57.4601 24.1379C58.7785 10.211 53.5632 5.78002 51.2518 4.52C50.5258 4.12781 49.6997 3.95257 48.8652 4.01098C42.6069 4.50331 35.2887 12.6726 33.8618 14.3415C31.7006 14.1746 28.9552 14.1412 25.8678 14.5167C25.1251 13.2317 22.6635 9.57677 18.4161 8.82577C16.8223 8.54205 15.1701 8.99266 13.8934 10.0441C12.383 11.2874 10.2051 13.4152 8.40272 16.4777C6.24149 20.1493 5.18174 24.213 5.23181 28.5438C4.72279 29.7371 4.28888 30.9888 3.94675 32.2738C3.50449 33.9177 3.22078 35.5866 3.08727 37.2388C2.94541 38.9494 2.97879 40.6517 3.17071 42.2706C3.52953 45.1828 4.42239 47.7446 5.76585 49.7472C5.80758 49.814 5.85764 49.8808 5.89937 49.9475C5.89937 49.9475 5.89937 49.9559 5.90771 49.9559C10.6224 55.7636 19.7846 59.769 30.3988 59.9943C30.3988 59.9943 30.3988 59.9943 30.4072 59.9943C30.6659 59.9943 30.9245 60.0026 31.1832 60.0026C32.0344 60.0026 32.8772 59.986 33.7033 59.9442C33.7116 59.9442 33.72 59.9442 33.7283 59.9442C37.8839 59.7273 41.7974 58.9179 45.2688 57.6662C45.7027 57.4993 46.1366 57.3241 46.5622 57.1321C47.6136 56.6815 48.6399 56.1725 49.6413 55.6218C49.7915 55.5383 49.9333 55.4632 50.0752 55.3798C50.1086 55.3965 50.1336 55.4048 50.167 55.4215C50.651 55.1461 51.1183 54.8624 51.5689 54.5704C51.5438 54.5537 51.5188 54.5453 51.5021 54.5286C51.7942 54.3451 52.0862 54.1615 52.3783 53.9696C53.2044 53.4188 53.9888 52.818 54.7147 52.1755C54.7314 52.1671 54.7398 52.1505 54.7565 52.1421C55.3155 51.6498 55.8412 51.1324 56.3336 50.59C59.6797 46.9518 61.6908 42.2288 61.9161 37.2722C62.0829 33.4504 61.1984 29.8957 59.2959 26.7164ZM14.7779 11.1289C15.3787 10.6365 16.0797 10.3194 16.814 10.2026C17.2562 10.1275 17.7152 10.1359 18.1658 10.211C19.4008 10.4279 20.4689 10.9453 21.3701 11.5878C22.797 12.5975 23.7983 13.8992 24.3491 14.7337C22.9305 14.959 21.4619 15.2844 19.9432 15.71C18.85 16.0271 17.7319 16.3942 16.6054 16.8365C13.9935 17.8629 11.6571 19.465 9.6544 21.6262C9.22883 22.0852 8.81994 22.5608 8.42775 23.0698C7.84364 23.8209 7.30124 24.6219 6.80057 25.4647C7.76019 17.7377 12.5583 12.9563 14.7779 11.1289ZM60.5058 37.2138C60.4641 38.1484 60.3556 39.0746 60.1804 39.9842C59.6297 42.863 58.428 45.5833 56.6924 47.9532C55.4491 49.6471 53.9387 51.1491 52.1947 52.4008C51.9944 52.5427 51.8025 52.6762 51.6022 52.8097C48.715 54.7289 45.8028 56.0807 42.9657 57.0153C36.1899 59.2433 29.8231 59.0347 25.1168 58.2586C18.3494 57.1405 12.8921 54.4702 9.61267 51.8C9.53757 51.7416 9.47082 51.6832 9.39572 51.6248C8.61133 50.9655 7.96046 50.3063 7.45145 49.6805C6.83395 48.9044 6.30825 48.0116 5.87433 47.0269C5.05657 45.1661 4.57259 42.9715 4.44742 40.6183C4.31391 38.1818 4.56425 35.5783 5.22346 32.9831C5.2485 32.8663 5.28187 32.7495 5.31525 32.6327C7.19277 25.6316 11.4985 20.3495 17.1394 18.1382C23.6815 15.5765 29.8481 15.443 33.8618 15.6516C36.0147 15.7601 37.8421 15.9687 39.1689 16.1522C40.6042 16.3525 41.447 16.5277 41.447 16.5277C40.696 15.9854 39.8198 15.4513 38.3178 15.0341C37.5835 14.8255 36.6989 14.6419 35.6058 14.5C37.8505 12.0217 43.9837 5.78837 48.9904 5.40452C49.5578 5.3628 50.1086 5.47962 50.6009 5.74664C51.0849 6.01367 51.7107 6.43089 52.3616 7.09011C54.4227 9.15955 56.8176 13.5571 56.1834 22.711C56.0666 22.5942 55.9497 22.4774 55.8329 22.3689C55.4491 21.9934 55.0402 21.6262 54.6146 21.2591C55.1069 15.7267 52.662 12.6058 51.7775 11.6712C51.6022 11.4877 51.4938 11.3875 51.4687 11.3708C51.4103 11.3291 51.3519 11.2874 51.2935 11.2624C51.1183 11.1873 50.918 11.1789 50.7344 11.2624C48.4397 12.247 47.4467 13.8658 47.0211 15.0508C46.5622 16.3358 46.6539 17.4039 46.6539 17.4456C46.679 17.6876 46.8208 17.8962 47.0378 18.0131C48.2561 18.6222 49.3993 19.2647 50.459 19.9407C52.3366 21.1339 53.947 22.4273 55.2989 23.8042C58.9871 27.5842 60.7395 32.0652 60.5058 37.2138ZM53.2628 20.1826C52.9791 19.9657 52.6787 19.7487 52.3783 19.5401C51.0598 18.6222 49.6162 17.7544 48.0391 16.945C48.0809 16.0938 48.4397 13.9827 50.8429 12.7477C50.9597 12.8812 51.1099 13.0564 51.2685 13.2817C52.1113 14.4082 53.3462 16.6779 53.2628 20.1826Z" fill="#2D1106"/>
<path d="M25.8011 34.2515C26.0347 34.6604 26.4352 35.0526 27.1195 35.3113C27.47 35.4448 27.8538 35.4865 28.246 35.4865C28.463 35.4865 28.6799 35.4698 28.9052 35.4364C29.6228 37.0636 30.4656 38.2902 31.3668 39.2081C33.0191 40.9104 34.8382 41.578 36.2984 41.82C36.7407 41.8951 37.1913 41.9285 37.6336 41.9285C37.8422 41.9285 38.0591 41.9201 38.2678 41.9034C40.0618 41.7699 41.8142 41.0857 43.2828 39.9007C45.8863 37.8146 47.2965 34.8106 47.3633 31.2058C47.3966 29.178 47.0045 27.5091 46.7958 26.7748C47.1713 26.8666 47.4884 26.9834 47.7471 27.1003C48.2895 27.3339 48.5816 27.5676 48.6066 27.5842C47.6804 26.4327 46.3536 25.7318 44.9016 25.4898C43.7 25.2895 42.415 25.4147 41.2134 25.8736C38.9019 26.7581 36.699 28.5606 34.3625 30.4631C33.6115 31.0806 32.8271 31.7148 32.0261 32.3406C30.1819 33.7675 28.6549 34.3099 27.5701 33.9845C26.4853 33.6507 25.7677 32.5659 25.6175 32.3239C25.6008 32.2905 25.5841 32.2739 25.5841 32.2739C25.6091 32.3239 25.292 33.3503 25.8011 34.2515ZM35.2554 31.5479C37.6753 29.2281 39.8031 27.918 41.6222 27.2338C43.0492 26.6914 44.2841 26.5328 45.2938 26.5662C45.4858 27.2588 45.9948 29.3616 45.953 31.2224C45.8863 34.4184 44.693 36.9718 42.4066 38.8076C40.7043 40.1678 38.5598 40.7602 36.5154 40.4348C33.7951 40.0009 31.6923 38.1818 30.2654 35.0442C30.4489 34.9691 30.6325 34.8857 30.8244 34.7856C31.4837 34.4518 32.1763 34.0095 32.8939 33.4504C33.7116 32.8163 34.5461 32.2321 35.2554 31.5479Z" fill="#2D1106"/>
<path d="M26.8691 50.1811C27.2947 49.8807 27.7203 49.6054 28.1291 49.3634C28.2877 49.5637 28.6215 49.9725 29.047 50.4148C29.6145 50.9989 30.3404 51.6331 31.0664 51.9168C31.2083 51.9669 31.3501 52.0003 31.492 52.0003C31.8424 52.0003 32.1929 51.8417 32.4182 51.5413C32.7436 51.1157 33.4529 50.0894 33.987 48.5707C34.1288 48.1785 34.254 47.7529 34.3541 47.2939C36.7407 47.1938 38.2677 48.0283 38.7684 48.3454C38.8769 48.4205 38.9436 48.4622 38.952 48.4705C38.251 47.0019 36.5905 45.9922 34.7296 46.0256C32.4516 46.0757 29.6645 47.0269 26.1932 48.9462C19.6261 52.5844 17.081 49.6221 16.9976 49.4886C16.9976 49.4886 17.3898 51.1241 18.8 51.6915C18.9585 51.7583 19.1171 51.8083 19.284 51.8584C19.7512 52.0002 20.2352 52.067 20.7776 52.067C22.555 52.0754 24.7329 51.6748 26.8691 50.1811ZM29.7146 49.1131C29.5644 48.9462 29.4476 48.796 29.3558 48.6875C30.6325 48.045 31.8007 47.6695 32.8438 47.4692C32.4182 48.9879 31.7673 50.0393 31.4002 50.54C31.25 50.4649 31.0914 50.3647 30.9329 50.2562C30.4906 49.9225 30.04 49.4802 29.7146 49.1131Z" fill="#2D1106"/>
<path d="M17.348 42.4207C18.1408 46.7349 22.6301 47.2856 22.6301 47.2856C28.997 46.3927 30.1068 43.2302 30.2236 41.5112C30.2653 40.852 29.9232 40.2261 29.3474 39.909C25.0834 37.6143 22.021 37.9982 20.0433 38.9244C19.1671 39.3333 18.4996 39.859 18.0323 40.3012C17.4565 40.8436 17.2062 41.6447 17.348 42.4207Z" fill="#2D1106"/>
<path d="M19.3507 35.3613C18.4579 35.4448 17.3814 34.6103 16.1214 33.6423C14.7613 32.5993 13.2259 31.406 11.3233 30.9137C7.36803 29.879 5.4488 32.9581 5.15674 33.3503C5.15674 33.3503 5.5239 33.15 5.9745 33.0415C6.16642 32.9998 6.36669 32.9664 6.56696 32.9831C6.46683 33.4337 6.36669 33.9928 6.35 34.6103C6.2749 36.6964 7.03425 38.3987 8.5613 39.5336C8.6364 39.592 8.71984 39.642 8.79494 39.7004L8.80329 39.7088C9.10369 39.9091 9.41244 40.076 9.74622 40.2178C10.1468 40.3847 10.5723 40.5182 11.0146 40.6017C11.4902 40.6934 12.066 40.7685 12.7002 40.7685C13.4095 40.7685 14.1772 40.6768 14.9282 40.4014C16.5804 39.8089 17.7152 38.5406 18.3077 36.638C18.6081 36.7298 18.9085 36.7799 19.2172 36.7799C19.3007 36.7799 19.3841 36.7799 19.4676 36.7715C20.2436 36.6964 20.8778 36.371 21.3034 35.8119C21.3284 35.7869 21.3451 35.7535 21.3618 35.7285C22.1128 34.6186 21.3451 33.1917 21.2116 33.0082C21.2116 33.0082 21.2032 33.0916 21.1699 33.2335C21.0864 33.6006 20.8611 34.3516 20.2853 34.9274C20.0767 35.1193 19.7346 35.3279 19.3507 35.3613ZM7.75188 34.7021C7.78526 33.6006 8.16911 32.5158 8.27758 32.2238C8.8617 32.0235 9.7045 31.9401 10.9645 32.2738C12.5834 32.6994 14.0019 33.7925 15.2536 34.7522C15.4622 34.9107 15.6708 35.0776 15.8794 35.2278C16.2633 35.5198 16.6471 35.7869 17.0226 36.0205C16.0797 39.3834 13.3844 39.617 11.2816 39.2081C10.564 39.0663 9.9298 38.7992 9.39575 38.3987C8.52792 37.7562 8.00222 36.8884 7.81864 35.8036C7.76857 35.4614 7.74354 35.0943 7.75188 34.7021Z" fill="#2D1106"/>
</svg>
