<svg width="190" height="56" viewBox="0 0 190 56" fill="none" xmlns="http://www.w3.org/2000/svg">
<g id="Frame" clip-path="url(#clip0_1_5)">
<path id="Vector" d="M71.6543 46.3871C69.4931 46.3871 67.7991 45.269 66.8812 43.2246C66.8228 43.091 66.7727 42.9408 66.7561 42.799C66.3305 40.0954 66.0635 37.4251 65.955 34.855C65.955 34.8049 65.955 34.7632 65.955 34.7132C66.0217 32.9942 66.1219 31.5422 66.2554 30.3239C65.6212 30.2405 65.0371 30.0903 64.478 29.8817C63.4516 29.4978 62.2333 28.4548 62.2333 25.6427C62.2333 22.1547 65.3542 20.1353 71.5124 19.6513C71.5541 19.643 71.6042 19.643 71.6459 19.643H74.7501C81.9431 19.643 84.872 23.2478 86.0653 26.2769C86.349 27.1113 86.4908 27.9708 86.4908 28.8887C86.4908 30.7912 85.4811 32.602 83.4284 34.371C85.9484 35.4809 88.0846 37.0079 88.0846 39.2359C88.0846 39.4695 88.0596 39.7115 88.0095 39.9535C87.6173 41.6308 86.4241 43.6835 82.9444 44.2092C82.861 44.2176 82.7775 44.2259 82.6941 44.2259C82.6106 44.2259 82.5355 44.2176 82.4521 44.2092C80.149 43.8754 78.1296 43.1328 76.4357 41.9896C76.4357 42.073 76.4357 42.1565 76.4357 42.2399C76.3356 44.7433 74.7 46.262 72.0465 46.3621C71.963 46.3788 71.8128 46.3871 71.6543 46.3871Z" fill="black"/>
<path id="Vector_2" d="M91.1471 46.6792C91.072 46.6792 90.9885 46.6708 90.9134 46.6625C89.595 46.4789 87.2919 45.6278 86.6327 42.0813C86.2488 40.0286 86.0652 38.6017 86.0652 37.7339C86.0652 35.7896 86.0652 30.7662 88.2765 28.5883C87.9928 28.4047 87.7425 28.1794 87.5339 27.8957C87.1834 27.4367 86.9915 26.8526 86.9915 26.2101C86.9915 25.8763 87.0416 25.5175 87.15 25.1503C87.2001 24.9584 87.2585 24.7748 87.3086 24.5996C86.5826 23.6734 86.2238 22.7888 86.2238 21.9294C86.2238 20.0852 88.1347 19.5094 89.4031 19.3008C89.9788 18.5081 90.9802 17.4734 92.382 17.4734C93.2248 17.4734 94.343 17.8072 95.2275 19.2174C97.3136 19.4343 98.073 20.8613 98.073 22.0962V22.405C98.073 22.9724 97.8477 23.4731 97.105 24.4744C97.2803 25.0335 97.3554 25.5425 97.3554 26.0265C97.3554 26.2351 97.3387 26.4437 97.3053 26.6357C97.1217 27.8039 96.2956 28.63 95.1357 28.8303C95.7616 29.4895 96.0954 30.3823 96.0954 31.4421C96.0954 31.609 96.087 31.7759 96.0703 31.9511V32.3183C96.0703 32.4017 96.062 32.4935 96.0536 32.577C95.6865 34.8967 95.6114 35.9899 95.6114 36.4989V38.2929C95.9201 42.1564 95.9201 42.2733 95.9201 42.3817C95.9201 43.7085 95.336 46.02 91.4224 46.6625C91.3306 46.6708 91.2388 46.6792 91.1471 46.6792Z" fill="black"/>
<path id="Vector_3" d="M103.747 46.8961C103.23 46.8961 102.704 46.8794 102.204 46.8377C98.4986 46.5957 95.8617 44.6014 94.6017 41.0884C94.5683 41.0049 94.5516 40.9215 94.535 40.8297C94.4098 40.1705 94.3514 39.4445 94.3514 38.6601C94.3514 37.0329 94.9188 35.4558 96.0453 33.9538C95.5363 32.8023 95.2776 31.584 95.2776 30.2906C95.2776 27.8456 96.2372 24.5078 100.785 22.4968C103.489 21.3119 106.034 20.7111 108.362 20.7111C108.846 20.7111 109.33 20.7361 109.797 20.7862C112.809 21.1283 114.871 22.3466 115.947 24.4077C116.389 25.2839 116.615 26.1183 116.615 26.8943C116.615 27.8122 116.306 29.1223 114.854 30.1821C113.827 30.9247 112.768 31.3002 111.708 31.3002C111.466 31.3002 111.216 31.2836 110.974 31.2418C111.249 31.8093 111.449 32.5352 111.449 33.4615C111.449 33.7285 111.433 34.0039 111.399 34.3043C111.391 34.3961 111.374 34.4878 111.357 34.5796C111.558 34.4545 111.766 34.321 111.975 34.1791C112.159 34.0539 112.367 33.9705 112.584 33.9288C112.96 33.8537 113.335 33.8203 113.686 33.8203C114.787 33.8203 117.416 34.2542 118.033 38.2763C118.083 38.61 118.108 38.9188 118.108 39.2192C118.108 41.1551 117.124 43.792 112.459 45.3691C109.472 46.3788 106.543 46.8961 103.747 46.8961Z" fill="black"/>
<path id="Vector_4" d="M121.663 46.8377C118.484 46.8377 116.581 44.9936 116.581 41.9145C116.581 40.7796 117.115 39.6614 118.2 38.5099C117.841 35.631 117.666 33.4448 117.666 31.851V29.2225C117.666 24.149 120.278 22.1129 122.472 21.2952C122.522 21.2785 122.581 21.2618 122.631 21.2451C123.54 21.0031 124.417 20.8863 125.218 20.8863C131.468 20.8863 136.324 23.5983 139.645 28.9471C139.679 29.0055 139.712 29.0556 139.737 29.1223C140.455 30.6577 140.822 32.2014 140.822 33.7118V34.7882C140.822 41.5223 134.48 45.5777 121.98 46.8294C121.922 46.8377 121.872 46.8377 121.813 46.8377H121.663ZM127.053 30.641C127.12 33.6701 127.287 35.3473 127.437 36.2569C131.192 35.2722 131.451 34.3376 131.451 34.3293C131.451 32.7271 129.974 31.4922 127.053 30.641Z" fill="black"/>
<path id="Vector_5" d="M152.296 45.511C148.624 45.511 145.436 44.3344 142.833 42.023C140.171 39.6531 138.819 36.7409 138.819 33.3697C138.819 29.9902 140.171 27.0779 142.833 24.7081C145.436 22.3967 148.624 21.2201 152.296 21.2201C155.959 21.2201 159.138 22.3967 161.75 24.7081C164.42 27.0696 165.772 29.9902 165.772 33.3697C165.772 36.7492 164.42 39.6615 161.75 42.0313C159.138 44.3344 155.959 45.511 152.296 45.511ZM152.212 30.8163C151.336 30.8163 150.652 31.0666 150.051 31.609C149.492 32.118 149.242 32.6437 149.242 33.328C149.242 34.0206 149.492 34.5546 150.051 35.0553C150.652 35.5977 151.336 35.848 152.212 35.848C153.088 35.848 153.773 35.5977 154.373 35.0553C154.932 34.5463 155.183 34.0122 155.183 33.328C155.183 32.6437 154.932 32.118 154.373 31.609C153.773 31.0666 153.088 30.8163 152.212 30.8163Z" fill="black"/>
<path id="Vector_6" d="M178.439 45.9115C172.781 45.9115 168.192 43.1495 164.796 37.6921C164.737 37.6087 164.696 37.5086 164.654 37.4168C164.061 35.8814 163.761 34.4879 163.761 33.2529C163.761 28.5132 166.64 24.7665 172.322 22.138C174.325 21.3035 176.411 20.8947 178.598 20.8947C182.67 20.8947 185.49 22.0963 186.984 24.4661C187.017 24.5162 187.042 24.5579 187.067 24.608C187.393 25.2588 187.551 26.0599 187.551 27.0529C187.551 27.879 187.309 29.5646 185.557 30.641C187.576 31.7008 188.744 33.2862 189.412 34.7048C189.479 34.8467 189.529 35.0052 189.554 35.1554L189.696 36.0817C189.712 36.1651 189.712 36.2569 189.712 36.3403V37.2666C189.712 40.0787 187.61 42.6238 183.287 45.0687C183.195 45.1188 183.087 45.1688 182.987 45.2022C181.535 45.6778 180.3 45.9115 179.215 45.9115H178.439ZM173.299 33.3947C173.299 33.4031 173.324 34.0957 175.26 35.3473C175.235 35.1554 175.218 34.9718 175.218 34.7883V33.5533C175.218 32.7522 175.46 31.5673 176.662 30.641C175.81 30.9498 174.884 31.4421 173.908 32.118C173.466 32.7605 173.332 33.0776 173.299 33.1778V33.3947Z" fill="black"/>
<g id="Group">
<path id="Vector_7" d="M75.2425 21.3202C80.2909 21.3202 83.5452 23.1811 85.0055 26.8944C85.2058 27.4868 85.3143 28.1544 85.3143 28.897C85.3143 30.8413 83.6871 32.8273 80.4244 34.8467C84.7468 36.2652 86.9081 37.7255 86.9081 39.2442C86.9081 39.3694 86.8914 39.4946 86.8664 39.6197C86.4742 41.272 85.2475 42.2566 83.1864 42.5654C79.6233 42.0396 76.8947 40.4709 75.0172 37.8507C75.0172 39.0273 75.0589 39.9201 75.134 40.521C75.2174 41.1218 75.2508 41.6975 75.2508 42.2483C75.1924 43.817 74.2578 44.6348 72.4637 44.7015C72.3553 44.7099 72.2551 44.7182 72.1466 44.7182C70.6363 44.7182 69.5515 43.9923 68.8923 42.5403C68.4751 39.8951 68.2164 37.3083 68.1079 34.7883C68.2164 32.1764 68.3916 30.1571 68.6503 28.7302L68.1079 28.7552C67.1817 28.7552 66.3305 28.6133 65.5545 28.3213C64.7784 28.0376 64.3946 27.1447 64.3946 25.6427C64.3946 23.1644 66.973 21.7208 72.1383 21.3119H75.2425V21.3202ZM75.2425 30.9748C76.928 30.4157 77.7625 29.8734 77.7625 29.356V29.331C77.7291 28.7969 76.928 28.4631 75.3593 28.3046L75.2425 30.9748Z" fill="#FFA943"/>
<path id="Vector_8" d="M91.339 29.2225H92.574C94.1428 29.3727 94.9272 30.1153 94.9272 31.4421C94.9272 31.5756 94.9188 31.7091 94.9021 31.851V32.3183C94.5934 34.2709 94.4348 35.6728 94.4348 36.4989V38.3597C94.6351 40.9382 94.7436 42.2733 94.7436 42.3818C94.7436 43.8003 93.7089 44.6765 91.6478 45.0103C90.0873 44.785 89.1277 43.7085 88.7689 41.781C88.4101 39.845 88.2349 38.5016 88.2349 37.7339C88.2349 32.0596 89.2696 29.2225 91.339 29.2225ZM92.8828 19.1423C93.6254 19.1423 94.2346 19.7181 94.7019 20.8696C94.8604 20.8613 95.019 20.8529 95.1692 20.8529C96.329 20.8529 96.9048 21.2618 96.9048 22.0879V22.3967C96.9048 22.5886 96.5043 23.181 95.7115 24.174C96.0286 24.8917 96.1872 25.5092 96.1872 26.0182C96.1872 26.135 96.1788 26.2435 96.1621 26.352C96.0704 26.9194 95.7115 27.2031 95.0774 27.2031C94.4432 27.2031 93.6171 26.8359 92.6074 26.11C91.556 26.9444 90.8133 27.3616 90.3794 27.3616C89.9455 27.3616 89.6117 27.2031 89.3864 26.8944C89.2446 26.7108 89.1778 26.4771 89.1778 26.2018C89.1778 26.0182 89.2112 25.8096 89.2696 25.5926C89.4198 25.0419 89.5783 24.5996 89.7452 24.2491C88.8524 23.3479 88.4018 22.5719 88.4018 21.9294C88.4018 21.387 89.2279 21.0282 90.8884 20.8529C91.5727 19.7181 92.2402 19.1423 92.8828 19.1423Z" fill="#FFA943"/>
<path id="Vector_9" d="M114.971 25.1837C115.288 25.8096 115.446 26.3854 115.446 26.8944C115.446 27.6621 115.087 28.3129 114.37 28.8303C113.636 29.3643 112.91 29.623 112.209 29.623C111.766 29.623 111.324 29.5145 110.89 29.3059C110.223 28.9805 109.488 28.8136 108.671 28.8136C108.111 28.8136 107.519 28.8887 106.893 29.0389C105.341 29.4228 104.573 29.89 104.573 30.4491C104.573 30.6327 104.849 30.7245 105.399 30.7245C105.7 30.7245 106.084 30.6911 106.543 30.6327C106.818 30.6077 107.077 30.591 107.31 30.591C108.237 30.591 108.963 30.8246 109.488 31.2919C110.022 31.7759 110.289 32.4935 110.289 33.4448C110.289 33.6451 110.273 33.862 110.248 34.0957C110.106 35.3724 109.205 36.307 107.552 36.8994C104.84 37.5169 103.489 38.101 103.489 38.6518C103.522 38.852 103.622 38.9605 103.797 38.9605H104.114C106.902 38.9605 109.997 37.8257 113.41 35.5643C113.686 35.5142 113.944 35.4809 114.195 35.4809C115.68 35.4809 116.581 36.4906 116.89 38.5183C116.923 38.7603 116.94 38.9856 116.94 39.2109C116.94 41.2386 115.438 42.7573 112.426 43.7753C109.605 44.7349 106.876 45.2106 104.256 45.2106C103.781 45.2106 103.305 45.1939 102.838 45.1605C99.7753 44.9602 97.7225 43.4081 96.6795 40.5126C96.571 39.9535 96.5209 39.336 96.5209 38.6518C96.5209 37.108 97.1968 35.6144 98.5403 34.1624C97.8143 32.9775 97.4555 31.6841 97.4555 30.2822C97.4555 27.4284 98.9575 25.3423 101.97 24.0155C104.465 22.914 106.768 22.3716 108.871 22.3716C109.296 22.3716 109.714 22.3967 110.131 22.4384C112.551 22.7305 114.17 23.64 114.971 25.1837Z" fill="#FFA943"/>
<path id="Vector_10" d="M125.727 22.5552C131.393 22.5552 135.732 24.9835 138.736 29.8316C139.353 31.15 139.662 32.4434 139.662 33.7118V34.7883C139.662 40.5543 133.879 44.0089 122.322 45.1688H122.164C119.886 45.1688 118.751 44.084 118.751 41.9145C118.751 41.08 119.318 40.1538 120.461 39.1274C120.044 35.9315 119.836 33.5032 119.836 31.851V29.2225C119.836 25.9014 121.071 23.7818 123.557 22.864C124.342 22.6637 125.068 22.5552 125.727 22.5552ZM126.194 28.7552L125.885 29.2225V30.616C125.985 34.9385 126.294 37.4668 126.812 38.2012H126.953C131.401 37.2415 133.621 35.9565 133.621 34.321C133.621 31.6758 131.401 29.8233 126.953 28.7552H126.194Z" fill="#FFA943"/>
<path id="Vector_11" d="M161.149 25.9598C163.452 28.0042 164.612 30.4741 164.612 33.3697C164.612 36.2652 163.461 38.7352 161.149 40.7796C158.846 42.824 156.059 43.8504 152.805 43.8504C149.542 43.8504 146.755 42.824 144.452 40.7796C142.149 38.7352 140.997 36.2652 140.997 33.3697C140.997 30.4741 142.149 28.0042 144.452 25.9598C146.755 23.9154 149.534 22.889 152.805 22.889C156.059 22.889 158.846 23.9154 161.149 25.9598ZM152.721 29.1474C151.436 29.1474 150.343 29.5562 149.442 30.374C148.541 31.1918 148.09 32.1764 148.09 33.328C148.09 34.4878 148.541 35.4808 149.442 36.2986C150.343 37.1164 151.436 37.5252 152.721 37.5252C154.006 37.5252 155.099 37.1164 156.001 36.2986C156.902 35.4808 157.352 34.4878 157.352 33.328C157.352 32.1764 156.902 31.1918 156.001 30.374C155.099 29.5562 154.006 29.1474 152.721 29.1474Z" fill="#FFA943"/>
<path id="Vector_12" d="M179.107 22.5552C182.586 22.5552 184.906 23.4814 186.074 25.3423C186.274 25.7512 186.383 26.3186 186.383 27.0446C186.383 28.5883 185.348 29.5145 183.287 29.8316C182.937 29.8316 181.952 29.4728 180.342 28.7552C180.083 28.7552 179.674 28.7051 179.107 28.5966C177.346 28.5966 175.377 29.3727 173.215 30.9164C172.498 31.9261 172.139 32.6437 172.139 33.0776V33.3864C172.139 34.6547 173.424 35.9982 176.002 37.4251C177.655 37.9425 178.739 38.1928 179.257 38.1928C180.4 38.0343 180.967 37.7756 180.967 37.4251C178.589 36.9745 177.396 36.09 177.396 34.7799V33.5449C177.396 32.2599 178.431 31.4421 180.5 31.075C184.405 31.075 187.034 32.5185 188.402 35.4057L188.553 36.332V37.2582C188.553 39.3944 186.692 41.5056 182.978 43.6084C181.702 44.0256 180.617 44.2342 179.724 44.2342H178.956C173.891 44.2342 169.819 41.7559 166.723 36.7993C166.198 35.4558 165.939 34.2709 165.939 33.2445C165.939 29.1891 168.467 25.9931 173.532 23.6483C175.276 22.9224 177.129 22.5552 179.107 22.5552Z" fill="#FFA943"/>
</g>
<path id="Vector_13" d="M45.0436 12.9423C46.6208 13.7517 48.0644 14.6196 49.3828 15.5375C49.7416 13.5515 48.7987 10.6643 48.2813 9.27074C48.1228 9.05379 47.9726 8.87021 47.8557 8.73669C45.4525 9.98003 45.0937 12.0995 45.0436 12.9423Z" fill="#BA8484"/>
<path id="Vector_14" d="M9.00374 34.2459C8.60321 33.8704 8.35287 33.328 8.35287 32.7355C8.35287 31.584 9.28746 30.6494 10.439 30.6494C11.4403 30.6494 12.2748 31.3587 12.4751 32.3016C12.8172 31.6841 12.8923 31.2335 12.8923 31.2335C12.6837 31.075 12.4751 30.9164 12.2664 30.7579C11.0148 29.7899 9.5962 28.6968 7.97737 28.2712C6.71735 27.9374 5.87455 28.0209 5.29044 28.2211C5.18196 28.5049 4.79811 29.598 4.75639 30.6995C4.74804 31.0917 4.77308 31.4588 4.83149 31.8093C6.58383 34.0373 8.34453 34.2542 9.00374 34.2459Z" fill="white"/>
<path id="Vector_15" d="M28.5966 31.876C29.7315 33.1361 31.2585 33.9872 32.9358 34.2042C35.1387 34.4962 36.6991 33.6451 37.4752 33.0693C35.9147 32.9608 34.6798 31.6674 34.6798 30.0736C34.6798 28.4131 36.0232 27.0696 37.6838 27.0696C38.8604 27.0696 39.8867 27.7538 40.3707 28.7385C40.4124 28.2795 40.4542 27.6871 40.4875 26.9194C40.571 24.8082 39.3861 23.7068 38.6351 23.2228C36.8243 23.9154 34.6881 25.2255 32.2682 27.5369C31.5589 28.2211 30.7161 28.8053 29.9067 29.4311C29.1807 29.9902 28.4881 30.4408 27.8289 30.7662C28.0125 31.1667 28.2962 31.5339 28.5966 31.876Z" fill="white"/>
<path id="Vector_16" d="M13.8185 6.19997C12.1079 7.32648 8.47799 10.4724 6.66724 17.6236C8.66992 15.4707 10.998 13.8602 13.6182 12.8339C14.7447 12.3916 15.8545 12.0244 16.9477 11.7073C18.6833 10.0802 18.7 8.5865 18.3746 7.57682C17.4734 6.94263 16.4053 6.41693 15.1703 6.19997C14.7197 6.12487 14.2691 6.12487 13.8185 6.19997Z" fill="#FFA943"/>
<path id="Vector_17" d="M55.9499 35.364C55.3658 41.4555 52.0947 45.7362 49.1909 48.3898C54.1558 44.835 57.2516 39.2192 57.5103 33.2111C57.7356 28.0626 55.9916 23.5816 52.295 19.8015C54.0557 22.405 56.6842 27.6871 55.9499 35.364Z" fill="#FFA943"/>
<path id="Vector_18" d="M49.3494 3.09582C48.6902 2.43661 48.0727 2.01938 47.5887 1.75236C47.0964 1.48533 46.5373 1.36851 45.9782 1.41023C40.9715 1.80242 34.8383 8.03577 32.5936 10.5057C33.6868 10.6476 34.5713 10.8312 35.3056 11.0398C36.7492 9.07049 43.6918 0.208622 49.3494 3.09582Z" fill="#FFDC9B"/>
<path id="Vector_19" d="M13.8185 6.19998C13.0842 6.3168 12.3833 6.6339 11.7825 7.12622C9.56283 8.95367 4.76473 13.7351 3.80511 21.4621C4.30579 20.6193 4.84818 19.8182 5.43229 19.0672C5.82449 18.5582 6.23337 18.0826 6.65894 17.6236C8.47804 10.4724 12.1079 7.32649 13.8185 6.19998Z" fill="#FEDD9F"/>
<path id="Vector_20" d="M16.9477 11.7073C18.458 11.2734 19.935 10.9563 21.3452 10.731C20.7945 9.89657 19.7932 8.59483 18.3746 7.58514C18.7 8.59483 18.6834 10.0802 16.9477 11.7073Z" fill="#D8661A"/>
<path id="Vector_21" d="M52.8708 13.468C52.754 13.443 52.6372 13.3846 52.5287 13.3095C52.1949 13.0842 51.9613 12.7254 51.8695 12.3248C51.3688 10.222 49.6248 8.44465 48.7653 7.66861C49.6582 8.61154 52.0948 11.724 51.6025 17.2565C52.028 17.6153 52.4286 17.9908 52.8208 18.3663C53.1963 16.9227 52.8708 13.468 52.8708 13.468Z" fill="#D8661A"/>
<path id="Vector_22" d="M49.3828 15.5375C49.6832 15.7461 49.9752 15.963 50.2673 16.18C50.3507 12.6753 49.1158 10.3973 48.2813 9.27075C48.7987 10.6643 49.7416 13.5598 49.3828 15.5375Z" fill="#F8B8BA"/>
<path id="Vector_23" d="M50.3007 41.5139C47.9142 44.543 44.7266 46.8043 41.1134 48.3981C41.3137 49.8668 41.1802 51.6108 39.9619 53.0043C42.799 52.0697 45.7112 50.7179 48.5984 48.7987C48.7987 48.6652 48.999 48.5317 49.1909 48.3898C52.0948 45.7362 55.3658 41.4555 55.9499 35.364C56.6843 27.6871 54.0557 22.405 52.295 19.7932C50.9432 18.408 49.3244 17.1229 47.4552 15.9297C49.9335 18.6917 59.1542 30.2655 50.3007 41.5139Z" fill="#D8661A"/>
<path id="Vector_24" d="M31.3503 43.2913C31.2418 43.7503 31.1167 44.1758 30.9832 44.568C32.7689 43.842 35.7646 44.3427 35.7646 44.3427C35.2639 44.0256 33.7368 43.1912 31.3503 43.2913Z" fill="#C2B7B8"/>
<path id="Vector_25" d="M5.79944 35.6895L5.80778 35.6978C5.80778 35.6978 5.80778 35.6978 5.79944 35.6895Z" fill="#C3874B"/>
<path id="Vector_26" d="M6.40858 34.4044C6.94262 34.8049 7.58515 35.0803 8.29444 35.2138C10.3973 35.6227 13.0925 35.3891 14.0355 32.0262C13.6516 31.7926 13.2761 31.5255 12.8923 31.2335C12.8923 31.2335 12.8172 31.6924 12.475 32.3016C12.5084 32.4434 12.5168 32.5853 12.5168 32.7355C12.5168 33.887 11.5822 34.8216 10.4306 34.8216C9.87155 34.8216 9.37088 34.6047 8.99537 34.2459C8.33616 34.2542 6.57547 34.0372 4.82312 31.8093C5.01504 32.894 5.54075 33.7619 6.40858 34.4044Z" fill="#C2B6B7"/>
<path id="Vector_27" d="M10.439 30.6494C9.28743 30.6494 8.35284 31.584 8.35284 32.7355C8.35284 33.328 8.60318 33.8704 9.00372 34.2459C9.37922 34.6047 9.87989 34.8216 10.439 34.8216C11.5905 34.8216 12.5251 33.8871 12.5251 32.7355C12.5251 32.5853 12.5084 32.4435 12.4834 32.3016C12.2748 31.3587 11.4403 30.6494 10.439 30.6494Z" fill="#2D1106"/>
<path id="Vector_28" d="M25.2505 31.4838C24.8583 31.4838 24.4744 31.4421 24.124 31.3086C23.4397 31.0499 23.0392 30.6661 22.8055 30.2488C23.0142 30.8914 23.6483 31.8593 25.5509 32.1347C25.6677 32.1514 25.7762 32.2265 25.8346 32.335C26.1016 32.8356 26.9695 34.3126 28.3713 35.1971C27.4701 34.2709 26.6273 33.0443 25.9097 31.4254C25.6844 31.4671 25.4674 31.4838 25.2505 31.4838Z" fill="#D8661A"/>
<path id="Vector_29" d="M44.3677 27.2031C44.301 30.8079 42.8908 33.8119 40.2956 35.8981C38.827 37.0746 37.0663 37.7672 35.2806 37.8924C35.2806 37.8924 42.557 37.7172 44.6264 29.9317C44.6264 29.9317 45.8531 25.6677 44.7599 23.0976C44.5013 22.9808 44.1842 22.8639 43.8087 22.7722C44.0089 23.4981 44.4011 25.167 44.3677 27.2031Z" fill="#D8661A"/>
<path id="Vector_30" d="M40.4876 26.9277C40.4542 27.6954 40.4208 28.2879 40.3708 28.7468C40.571 29.1474 40.6795 29.598 40.6795 30.0736C40.6795 31.7342 39.336 33.0776 37.6755 33.0776C37.6087 33.0776 37.542 33.0776 37.4752 33.0693C36.6992 33.6451 35.1471 34.4962 32.9441 34.2042C31.2669 33.9872 29.7315 33.1361 28.5967 31.876C28.2963 31.5423 28.0209 31.1667 27.8206 30.7829C27.637 30.8747 27.4451 30.9581 27.2615 31.0416C28.6884 34.1791 30.7913 35.9982 33.5199 36.4321C35.5643 36.7576 37.7089 36.1651 39.4111 34.805C41.6975 32.9692 42.8908 30.4241 42.9576 27.2198C42.9993 25.359 42.4903 23.2562 42.2983 22.5636C41.2887 22.5302 40.0537 22.6887 38.6268 23.2311C39.3778 23.7151 40.5627 24.8166 40.4876 26.9277Z" fill="#C2B6B7"/>
<path id="Vector_31" d="M40.6795 30.0736C40.6795 29.598 40.571 29.1474 40.3708 28.7468C39.8784 27.7538 38.8604 27.0779 37.6838 27.0779C36.0233 27.0779 34.6798 28.4214 34.6798 30.0736C34.6798 31.6591 35.9148 32.9608 37.4752 33.0693C37.542 33.0776 37.6087 33.0776 37.6755 33.0776C39.336 33.0776 40.6795 31.7342 40.6795 30.0736Z" fill="#2D1106"/>
<path id="Vector_32" d="M24.5829 29.9818C25.6594 30.3072 27.1948 29.7649 29.0389 28.3379C29.84 27.7205 30.6244 27.0779 31.3754 26.4604C33.7118 24.5495 35.9148 22.7555 38.2262 21.8709C39.4278 21.412 40.7129 21.2868 41.9145 21.4871C41.9145 21.4871 37.2749 19.9934 32.5853 24.0071C27.8957 28.0209 26.4938 29.2308 25.2088 29.1891C23.9237 29.1474 23.0809 28.605 22.6971 27.3533C22.6971 27.3533 22.5803 27.7622 22.622 28.3129C22.7805 28.5632 23.4898 29.648 24.5829 29.9818Z" fill="#FEDD9F"/>
<path id="Vector_33" d="M41.0216 28.096C41.0216 29.0139 40.2789 29.7482 39.3694 29.7482C38.4598 29.7482 37.7172 29.0055 37.7172 28.096C37.7172 27.1781 38.4598 26.4438 39.3694 26.4438C40.2789 26.4438 41.0216 27.1781 41.0216 28.096Z" fill="white"/>
<path id="Vector_34" d="M12.7921 31.7008C12.7921 32.1931 12.3916 32.5853 11.9076 32.5853C11.4153 32.5853 11.0231 32.1848 11.0231 31.7008C11.0231 31.2085 11.4236 30.8163 11.9076 30.8163C12.3916 30.8163 12.7921 31.2168 12.7921 31.7008Z" fill="white"/>
<path id="Vector_35" d="M17.0395 34.9218C19.0171 33.9955 22.0879 33.6034 26.3436 35.9064C26.3436 35.9064 34.3376 37.1164 39.3777 44.1675C40.2038 45.3274 40.7963 46.6458 41.0466 48.0477C41.0717 48.1645 41.0883 48.2813 41.105 48.3982C44.7265 46.8044 47.9058 44.543 50.2923 41.514C59.1459 30.2572 49.9252 18.6834 47.4469 15.9297C46.3871 15.2538 45.2523 14.6113 44.0256 14.0021C43.8087 13.8936 43.6585 13.6767 43.6418 13.4347C43.6418 13.393 43.55 12.3249 44.0089 11.0398C44.4345 9.85488 45.4191 8.23605 47.7222 7.2514C47.9058 7.1763 48.1061 7.1763 48.2813 7.2514C48.3397 7.27643 48.4065 7.31815 48.4565 7.35988C48.4816 7.38491 48.5984 7.48504 48.7653 7.66028C49.6248 8.43632 51.3688 10.2137 51.8694 12.3165C51.9612 12.7171 52.1949 13.0759 52.5287 13.3012C52.6371 13.3763 52.754 13.4347 52.8708 13.4597C52.8708 13.4597 53.1962 16.9143 52.8207 18.3663C52.9375 18.4831 53.0544 18.5916 53.1712 18.7084C53.797 9.54614 51.4105 5.14858 49.3411 3.08749C43.6918 0.200288 36.7492 9.06216 35.2973 11.0398C36.7993 11.4654 37.6754 11.9994 38.4264 12.5335C38.4264 12.5335 37.5837 12.3582 36.1484 12.158C35.5559 12.0745 13.0508 9.13726 4.20562 26.7024C4.20562 26.7024 7.17626 24.8082 11.3986 28.0292C15.6209 31.2502 17.4317 31.0583 18.1827 29.2058C18.216 29.0639 18.2244 28.9805 18.2244 28.9805C18.3579 29.1641 19.1256 30.591 18.3746 31.7008C18.2244 32.2849 17.7404 33.303 16.205 33.5032C16.0214 33.5283 15.8629 33.6367 15.7795 33.7953C15.1703 34.9051 12.475 38.9772 6.75904 36.1985C6.42526 36.0566 6.10817 35.8898 5.80776 35.6895C5.80776 35.6895 5.79942 35.6895 5.79942 35.6811C5.72432 35.6311 5.64087 35.5727 5.56577 35.5143C4.03873 34.3794 3.27938 32.6771 3.35448 30.591C3.37951 29.9735 3.4713 29.4144 3.57144 28.9638C3.37117 28.9555 3.1709 28.9805 2.97898 29.0222C2.66188 30.0486 1.70227 33.2946 1.43524 36.599C1.62717 40.1955 2.65354 43.4165 4.44761 45.6528C4.94828 46.287 5.6075 46.9379 6.39188 47.5971C6.08313 45.2106 6.27506 38.4348 17.0395 34.9218ZM22.5969 28.2712C22.5969 28.2712 22.6053 28.2879 22.6303 28.3213C22.5802 27.7705 22.7054 27.3617 22.7054 27.3617C23.0809 28.605 23.9237 29.1557 25.2171 29.1975C26.5021 29.2392 27.904 28.0292 32.5936 24.0155C37.2832 20.0018 41.9228 21.4955 41.9228 21.4955C43.3664 21.7291 44.6932 22.4384 45.6278 23.5899C45.6027 23.5649 45.3107 23.3396 44.7683 23.106C45.8614 25.6844 44.6264 29.9485 44.6264 29.9485C42.5653 37.7422 35.2806 37.9091 35.2806 37.9091C35.072 37.9258 34.855 37.9342 34.6464 37.9342C34.1958 37.9342 33.7535 37.9008 33.3113 37.8257C31.851 37.592 30.0319 36.9161 28.3797 35.2138C26.9778 34.321 26.11 32.8524 25.8429 32.3433C25.7845 32.2349 25.6844 32.1598 25.5592 32.1431C23.6567 31.8677 23.0225 30.8914 22.8139 30.2572C22.2965 29.3477 22.6136 28.3213 22.5969 28.2712Z" fill="#FFA943"/>
<path id="Vector_36" d="M2.16959 29.3476C2.46165 28.9638 4.38088 25.8847 8.33618 26.9194C10.2304 27.4117 11.7741 28.605 13.1343 29.648C14.3859 30.616 15.4707 31.4505 16.3636 31.367C16.7474 31.3336 17.0979 31.125 17.3065 30.9081C17.8823 30.3323 18.1076 29.5896 18.191 29.2141C17.44 31.0666 15.6376 31.2585 11.407 28.0375C7.17629 24.8082 4.20565 26.7024 4.20565 26.7024C13.0508 9.13724 35.556 12.0829 36.1484 12.158C34.8216 11.9744 32.9942 11.7658 30.8413 11.6573C26.8276 11.4487 20.661 11.5822 14.1189 14.1439C8.47804 16.3552 4.17227 21.6373 2.29476 28.6384C1.56878 31.342 1.29341 34.079 1.42693 36.6157C1.69395 33.3113 2.64522 30.0653 2.97066 29.0389C2.5284 29.1474 2.16959 29.3476 2.16959 29.3476Z" fill="#FEDD9F"/>
<path id="Vector_37" d="M28.0876 45.1521C27.9875 44.8267 27.6454 44.6348 27.3199 44.7349C27.1447 44.785 26.9444 44.9018 26.7191 45.1104C27.0446 45.4776 27.4868 45.9282 27.9458 46.2536C28.0876 45.9949 28.2128 45.6028 28.0876 45.1521Z" fill="white"/>
<path id="Vector_38" d="M41.1134 48.3982C41.0967 48.2813 41.08 48.1562 41.055 48.0477C40.8047 46.6458 40.2205 45.3274 39.3861 44.1675C34.346 37.1164 26.352 35.9064 26.352 35.9064C26.9361 36.2235 27.2782 36.8494 27.2281 37.5086C27.1113 39.2275 26.0015 42.3901 19.6346 43.283C19.6346 43.283 15.1369 42.7322 14.3442 38.4181C14.2024 37.6421 14.461 36.841 15.0285 36.2986C15.4874 35.8564 16.155 35.339 17.0395 34.9301C6.27508 38.4348 6.08315 45.2106 6.3919 47.6138C6.45865 47.6722 6.53375 47.7306 6.60886 47.789C15.4707 51.9946 30.2488 53.1796 41.1134 48.3982ZM16.2885 47.8641C16.1299 47.814 15.963 47.7556 15.8045 47.6972C14.3859 47.1214 14.0021 45.4943 14.0021 45.4943C14.0855 45.6361 16.6223 48.5901 23.1977 44.9519C26.6691 43.0326 29.4561 42.0814 31.7342 42.0313C33.595 41.9896 35.2556 43.0076 35.9565 44.4762C35.9481 44.4679 35.8897 44.4178 35.7729 44.3511C35.7729 44.3511 32.7772 43.8504 30.9832 44.5764C30.4491 46.0951 29.7482 47.1214 29.4144 47.547C29.1891 47.8391 28.8386 48.006 28.4882 48.006C28.3463 48.006 28.2044 47.9809 28.0626 47.9225C27.345 47.6388 26.6106 47.0046 26.0432 46.4205C25.2839 46.9462 21.412 49.4162 16.2885 47.8641Z" fill="white"/>
<path id="Vector_39" d="M41.1134 48.3982C30.2488 53.1796 15.4707 51.9863 6.60883 47.7974C9.88822 50.4676 15.3455 53.1378 22.1129 54.256C26.8192 55.0321 33.1861 55.2323 39.9618 53.0127C41.1801 51.6108 41.3136 49.8668 41.1134 48.3982Z" fill="#C2B6B7"/>
<path id="Vector_40" d="M28.0876 45.1521C28.2212 45.6027 28.0876 45.9949 27.9541 46.2536C28.1043 46.3621 28.2629 46.4622 28.4214 46.5373C28.7886 46.0367 29.4394 44.9853 29.865 43.4666C28.822 43.6668 27.6537 44.0423 26.377 44.6849C26.4605 44.7933 26.5856 44.9435 26.7358 45.1104C26.9611 44.9018 27.1614 44.7933 27.3366 44.7349C27.6454 44.6348 27.9875 44.8267 28.0876 45.1521Z" fill="#C2B7B8"/>
<path id="Vector_41" d="M25.1336 45.3607C24.7248 45.6111 24.2992 45.8781 23.8736 46.1785C21.7374 47.6722 19.5595 48.0727 17.7821 48.0727C17.2397 48.0727 16.7557 48.006 16.2885 47.8641C21.412 49.4078 25.2922 46.9462 26.0515 46.4122C25.6176 45.9782 25.2922 45.5694 25.1336 45.3607Z" fill="#C2B7B8"/>
<path id="Vector_42" d="M16.4804 32.7605C16.3969 32.7689 16.3135 32.7689 16.2301 32.7689C15.9213 32.7689 15.6209 32.7188 15.3205 32.627C14.728 34.5296 13.5932 35.7979 11.941 36.3904C11.19 36.6658 10.4223 36.7576 9.71299 36.7576C9.07881 36.7576 8.50304 36.6825 8.0274 36.5907C7.57679 36.5072 7.15957 36.3737 6.75903 36.2068C12.475 38.9855 15.1703 34.9134 15.7794 33.8036C15.8712 33.6451 16.0214 33.5282 16.205 33.5116C17.7488 33.3113 18.2244 32.3016 18.3746 31.7091C18.3579 31.7342 18.3329 31.7675 18.3162 31.7926C17.8906 32.3517 17.2564 32.6854 16.4804 32.7605Z" fill="#D8661A"/>
<path id="Vector_43" d="M19.0839 55.0737C18.9087 55.032 18.7418 54.9903 18.5749 54.9486L19.0839 55.0737Z" fill="#D4854A"/>
<path id="Vector_44" d="M56.3004 22.7138C55.7663 21.8209 55.1572 20.9614 54.4646 20.1353C55.783 6.20833 50.5677 1.7774 48.2563 0.517376C47.5303 0.125184 46.7042 -0.0500511 45.8698 0.00836047C39.6114 0.500686 32.2932 8.66996 30.8663 10.3389C28.7051 10.172 25.9598 10.1386 22.8723 10.5141C22.1296 9.22904 19.668 5.57415 15.4206 4.82314C13.8268 4.53943 12.1746 4.99003 10.8979 6.04144C9.38757 7.28477 7.20965 9.41262 5.40724 12.4751C3.24601 16.1466 2.18626 20.2104 2.23632 24.5412C1.72731 25.7345 1.29339 26.9862 0.951268 28.2712C0.509009 29.9151 0.225296 31.584 0.0917838 33.2362C-0.0500728 34.9468 -0.0166948 36.6491 0.175229 38.2679C0.534043 41.1802 1.42691 43.7419 2.77037 45.7446C2.81209 45.8114 2.86216 45.8781 2.90388 45.9449C2.90388 45.9449 2.90388 45.9532 2.91223 45.9532C7.62687 51.761 16.7891 55.7664 27.4034 55.9917C27.4034 55.9917 27.4034 55.9917 27.4117 55.9917C27.6704 55.9917 27.9291 56 28.1877 56C29.0389 56 29.8817 55.9833 30.7078 55.9416C30.7161 55.9416 30.7245 55.9416 30.7328 55.9416C34.8884 55.7247 38.802 54.9152 42.2733 53.6636C42.7072 53.4967 43.1411 53.3214 43.5667 53.1295C44.6181 52.6789 45.6445 52.1699 46.6458 51.6192C46.796 51.5357 46.9379 51.4606 47.0797 51.3772C47.1131 51.3938 47.1381 51.4022 47.1715 51.4189C47.6555 51.1435 48.1228 50.8598 48.5734 50.5677C48.5483 50.5511 48.5233 50.5427 48.5066 50.526C48.7987 50.3424 49.0907 50.1589 49.3828 49.9669C50.2089 49.4162 50.9933 48.8154 51.7193 48.1729C51.7359 48.1645 51.7443 48.1478 51.761 48.1395C52.3201 47.6472 52.8458 47.1298 53.3381 46.5874C56.6842 42.9492 58.6953 38.2262 58.9206 33.2696C59.0875 29.4478 58.2029 25.893 56.3004 22.7138ZM11.7824 7.12623C12.3832 6.6339 13.0842 6.31681 13.8185 6.19999C14.2608 6.12489 14.7197 6.13323 15.1703 6.20833C16.4053 6.42529 17.4734 6.94265 18.3746 7.58517C19.8015 8.59486 20.8029 9.8966 21.3536 10.7311C19.935 10.9564 18.4664 11.2818 16.9477 11.7074C15.8546 12.0245 14.7364 12.3916 13.6099 12.8339C10.9981 13.8602 8.66159 15.4624 6.65891 17.6236C6.23334 18.0826 5.82446 18.5582 5.43227 19.0672C4.84815 19.8182 4.30576 20.6193 3.80509 21.4621C4.76471 13.7351 9.5628 8.95367 11.7824 7.12623ZM57.5103 33.2112C57.4686 34.1457 57.3601 35.072 57.1849 35.9815C56.6342 38.8604 55.4326 41.5807 53.6969 43.9505C52.4536 45.6445 50.9432 47.1465 49.1992 48.3982C48.9989 48.54 48.807 48.6735 48.6068 48.8071C45.7196 50.7263 42.8073 52.0781 39.9702 53.0127C33.1945 55.2407 26.8276 55.0321 22.1213 54.256C15.3539 53.1378 9.89658 50.4676 6.61719 47.7974C6.54209 47.739 6.47533 47.6805 6.40023 47.6221C5.61585 46.9629 4.96498 46.3037 4.45596 45.6779C3.83847 44.9018 3.31276 44.009 2.87885 43.0243C2.06109 41.1635 1.57711 38.9689 1.45194 36.6157C1.31843 34.1791 1.56876 31.5756 2.22798 28.9805C2.25301 28.8637 2.28639 28.7469 2.31977 28.63C4.19728 21.629 8.50305 16.3469 14.1439 14.1356C20.686 11.5739 26.8526 11.4403 30.8663 11.649C33.0192 11.7574 34.8467 11.966 36.1734 12.1496C37.6087 12.3499 38.4515 12.5251 38.4515 12.5251C37.7005 11.9827 36.8243 11.4487 35.3223 11.0315C34.588 10.8228 33.7035 10.6393 32.6103 10.4974C34.855 8.01909 40.9882 1.78574 45.9949 1.40189C46.5624 1.36017 47.1131 1.47699 47.6054 1.74402C48.0894 2.01104 48.7152 2.42827 49.3661 3.08748C51.4272 5.15692 53.8221 9.55448 53.1879 18.7084C53.0711 18.5916 52.9542 18.4748 52.8374 18.3663C52.4536 17.9908 52.0447 17.6236 51.6191 17.2565C52.1115 11.7241 49.6665 8.6032 48.782 7.66862C48.6068 7.48504 48.4983 7.38491 48.4732 7.36822C48.4148 7.32649 48.3564 7.28477 48.298 7.25974C48.1228 7.18464 47.9225 7.17629 47.7389 7.25974C45.4442 8.24439 44.4512 9.86322 44.0256 11.0481C43.5667 12.3332 43.6585 13.4013 43.6585 13.443C43.6835 13.685 43.8254 13.8936 44.0423 14.0104C45.2606 14.6196 46.4038 15.2621 47.4636 15.938C49.3411 17.1313 50.9516 18.4247 52.3034 19.8015C55.9916 23.5816 57.744 28.0626 57.5103 33.2112ZM50.2673 16.18C49.9836 15.9631 49.6832 15.7461 49.3828 15.5375C48.0644 14.6196 46.6208 13.7518 45.0436 12.9423C45.0854 12.0912 45.4442 9.98005 47.8474 8.74506C47.9642 8.87857 48.1144 9.05381 48.273 9.27911C49.1158 10.4056 50.3508 12.6753 50.2673 16.18Z" fill="#2D1106"/>
<path id="Vector_45" d="M22.8056 30.2489C23.0392 30.6577 23.4398 31.0499 24.124 31.3086C24.4745 31.4421 24.8583 31.4838 25.2505 31.4838C25.4675 31.4838 25.6844 31.4671 25.9097 31.4338C26.6274 33.061 27.4702 34.2876 28.3714 35.2055C30.0236 36.9078 31.8427 37.5753 33.303 37.8173C33.7452 37.8924 34.1958 37.9258 34.6381 37.9258C34.8467 37.9258 35.0637 37.9175 35.2723 37.9008C37.0663 37.7673 38.8187 37.083 40.2873 35.8981C42.8908 33.812 44.301 30.8079 44.3678 27.2031C44.4012 25.1754 44.009 23.5065 43.8004 22.7722C44.1759 22.864 44.493 22.9808 44.7516 23.0976C45.294 23.3313 45.5861 23.5649 45.6111 23.5816C44.6849 22.43 43.3581 21.7291 41.9062 21.4871C40.7045 21.2868 39.4195 21.412 38.2179 21.871C35.9064 22.7555 33.7035 24.5579 31.367 26.4604C30.616 27.0779 29.8316 27.7121 29.0306 28.338C27.1864 29.7649 25.6594 30.3073 24.5746 29.9818C23.4898 29.648 22.7722 28.5633 22.622 28.3213C22.6053 28.2879 22.5886 28.2712 22.5886 28.2712C22.6136 28.3213 22.2966 29.3476 22.8056 30.2489ZM32.2599 27.5452C34.6798 25.2255 36.8077 23.9154 38.6268 23.2311C40.0537 22.6887 41.2887 22.5302 42.2983 22.5636C42.4903 23.2562 42.9993 25.359 42.9576 27.2198C42.8908 30.4157 41.6975 32.9692 39.4111 34.805C37.7089 36.1651 35.5643 36.7576 33.5199 36.4321C30.7996 35.9982 28.6968 34.1791 27.2699 31.0416C27.4535 30.9665 27.637 30.883 27.829 30.7829C28.4882 30.4491 29.1808 30.0069 29.8984 29.4478C30.7162 28.8136 31.5506 28.2295 32.2599 27.5452Z" fill="#2D1106"/>
<path id="Vector_46" d="M23.8736 46.1785C24.2992 45.8781 24.7248 45.6028 25.1336 45.3608C25.2922 45.561 25.626 45.9699 26.0515 46.4122C26.619 46.9963 27.3449 47.6305 28.0709 47.9142C28.2128 47.9642 28.3546 47.9976 28.4965 47.9976C28.847 47.9976 29.1974 47.8391 29.4227 47.5387C29.7482 47.1131 30.4574 46.0867 30.9915 44.568C31.1334 44.1758 31.2585 43.7503 31.3587 43.2913C33.7452 43.1912 35.2722 44.0256 35.7729 44.3427C35.8814 44.4178 35.9481 44.4596 35.9565 44.4679C35.2555 42.9993 33.595 41.9896 31.7342 42.023C29.4561 42.073 26.669 43.0243 23.1977 44.9435C16.6306 48.5817 14.0855 45.6194 14.0021 45.4859C14.0021 45.4859 14.3943 47.1215 15.8045 47.6889C15.963 47.7556 16.1216 47.8057 16.2885 47.8558C16.7558 47.9976 17.2397 48.0644 17.7821 48.0644C19.5595 48.0727 21.7374 47.6722 23.8736 46.1785ZM26.7191 45.1104C26.5689 44.9435 26.4521 44.7933 26.3603 44.6849C27.637 44.0423 28.8052 43.6668 29.8483 43.4666C29.4227 44.9853 28.7719 46.0367 28.4047 46.5373C28.2545 46.4622 28.0959 46.3621 27.9374 46.2536C27.4951 45.9198 27.0445 45.4776 26.7191 45.1104Z" fill="#2D1106"/>
<path id="Vector_47" d="M14.3525 38.4181C15.1453 42.7322 19.6346 43.283 19.6346 43.283C26.0015 42.3901 27.1113 39.2275 27.2281 37.5086C27.2698 36.8494 26.9277 36.2235 26.3519 35.9064C22.0879 33.6117 19.0255 33.9955 17.0478 34.9218C16.1716 35.3307 15.5041 35.8564 15.0368 36.2986C14.461 36.841 14.2107 37.6421 14.3525 38.4181Z" fill="#2D1106"/>
<path id="Vector_48" d="M16.3553 31.3587C15.4624 31.4421 14.386 30.6077 13.1259 29.6397C11.7658 28.5966 10.2304 27.4034 8.32785 26.9111C4.37255 25.8763 2.45331 28.9555 2.16125 29.3477C2.16125 29.3477 2.52841 29.1474 2.97902 29.0389C3.17094 28.9972 3.37121 28.9638 3.57148 28.9805C3.47134 29.4311 3.37121 29.9902 3.35452 30.6077C3.27942 32.6938 4.03877 34.3961 5.56581 35.5309C5.64091 35.5893 5.72436 35.6394 5.79946 35.6978L5.80781 35.7062C6.10821 35.9064 6.41695 36.0733 6.75073 36.2152C7.15127 36.3821 7.57684 36.5156 8.0191 36.599C8.49474 36.6908 9.07051 36.7659 9.70469 36.7659C10.414 36.7659 11.1817 36.6741 11.9327 36.3988C13.5849 35.8063 14.7197 34.5379 15.3122 32.6354C15.6126 32.7272 15.913 32.7772 16.2218 32.7772C16.3052 32.7772 16.3886 32.7772 16.4721 32.7689C17.2481 32.6938 17.8823 32.3684 18.3079 31.8093C18.3329 31.7842 18.3496 31.7509 18.3663 31.7258C19.1173 30.616 18.3496 29.1891 18.2161 29.0055C18.2161 29.0055 18.2077 29.089 18.1744 29.2308C18.0909 29.598 17.8656 30.349 17.2898 30.9248C17.0812 31.1167 16.7391 31.3253 16.3553 31.3587ZM4.7564 30.6995C4.78977 29.598 5.17362 28.5132 5.2821 28.2211C5.86622 28.0209 6.70901 27.9374 7.96903 28.2712C9.58787 28.6968 11.0064 29.7899 12.2581 30.7495C12.4667 30.9081 12.6753 31.075 12.8839 31.2252C13.2678 31.5172 13.6516 31.7842 14.0271 32.0179C13.0842 35.3807 10.3889 35.6144 8.28612 35.2055C7.5685 35.0636 6.93431 34.7966 6.40027 34.3961C5.53244 33.7536 5.00673 32.8857 4.82315 31.8009C4.77309 31.4588 4.74805 31.0917 4.7564 30.6995Z" fill="#2D1106"/>
</g>
<defs>
<clipPath id="clip0_1_5">
<rect width="189.704" height="56" fill="white"/>
</clipPath>
</defs>
</svg>
